<?xml version="1.0" encoding="utf-8"?>
<!-- Generator: Adobe Illustrator 22.0.1, SVG Export Plug-In . SVG Version: 6.00 Build 0)  -->
<svg version="1.1" id="Layer_1" xmlns="http://www.w3.org/2000/svg" xmlns:xlink="http://www.w3.org/1999/xlink" x="0px" y="0px"
	 viewBox="0 0 100 100" width="25" height="25" style="enable-background:new 0 0 100 100;" xml:space="preserve">
<style type="text/css">
	.st0{fill:#F4F4F2;}
</style>
<path id="XMLID_38_" class="st0" d="M16.907,16.212c0-0.953,0.773-1.726,1.726-1.726h64.419c0.953,0,1.726,0.773,1.726,1.726
	c0,0.953-0.772,1.726-1.726,1.726H18.633C17.68,17.938,16.907,17.165,16.907,16.212z M18.633,27.049h64.419
	c0.953,0,1.726-0.772,1.726-1.726c0-0.953-0.772-1.726-1.726-1.726H18.633c-0.953,0-1.726,0.772-1.726,1.726
	C16.907,26.277,17.68,27.049,18.633,27.049z M84.777,34.435c0-0.953-0.772-1.726-1.726-1.726H18.633
	c-0.953,0-1.726,0.773-1.726,1.726c0,0.953,0.773,1.726,1.726,1.726h64.419C84.004,36.16,84.777,35.388,84.777,34.435z
	 M8.474,41.888V8.675H4.177c-1.906,0-3.451-1.545-3.451-3.451c0-1.906,1.545-3.451,3.451-3.451h71.589
	c12.963,0,23.509,10.546,23.509,23.509c0,12.963-10.546,23.509-23.509,23.509H4.177c-1.906,0-3.451-1.545-3.451-3.451
	c0-1.906,1.545-3.451,3.451-3.451H8.474z M11.925,41.888h63.841c9.157,0,16.606-7.45,16.606-16.607S84.922,8.675,75.766,8.675
	H11.925V41.888z M83.051,63.923H18.633c-0.953,0-1.726,0.773-1.726,1.726c0,0.953,0.773,1.725,1.726,1.725h64.419
	c0.953,0,1.726-0.772,1.726-1.725C84.777,64.695,84.004,63.923,83.051,63.923z M83.051,73.034H18.633
	c-0.953,0-1.726,0.772-1.726,1.726c0,0.953,0.773,1.726,1.726,1.726h64.419c0.953,0,1.726-0.773,1.726-1.726
	C84.777,73.807,84.004,73.034,83.051,73.034z M83.051,82.146H18.633c-0.953,0-1.726,0.772-1.726,1.726
	c0,0.953,0.773,1.726,1.726,1.726h64.419c0.953,0,1.726-0.772,1.726-1.726C84.777,82.919,84.004,82.146,83.051,82.146z
	 M99.275,74.718c0,12.963-10.546,23.509-23.509,23.509H4.177c-1.906,0-3.451-1.545-3.451-3.451c0-1.906,1.545-3.451,3.451-3.451
	h4.297V58.112H4.177c-1.906,0-3.451-1.545-3.451-3.451c0-1.906,1.545-3.451,3.451-3.451h71.589
	C88.729,51.209,99.275,61.755,99.275,74.718z M92.372,74.718c0-9.157-7.45-16.606-16.606-16.606H11.925v33.213h63.841
	C84.922,91.325,92.372,83.875,92.372,74.718z"/>
<g>
</g>
<g>
</g>
<g>
</g>
<g>
</g>
<g>
</g>
<g>
</g>
<g>
</g>
<g>
</g>
<g>
</g>
<g>
</g>
<g>
</g>
<g>
</g>
<g>
</g>
<g>
</g>
<g>
</g>
</svg>
